<svg width="15" height="14" viewBox="0 0 15 14" fill="none" xmlns="http://www.w3.org/2000/svg">
<path d="M6.80469 1.08984L7.49844 0.396094C7.79219 0.102344 8.26719 0.102344 8.55781 0.396094L14.6328 6.46797C14.9266 6.76172 14.9266 7.23672 14.6328 7.52734L8.55781 13.6023C8.26406 13.8961 7.78906 13.8961 7.49844 13.6023L6.80469 12.9086C6.50781 12.6117 6.51406 12.1273 6.81719 11.8367L10.5828 8.24922H1.60156C1.18594 8.24922 0.851562 7.91484 0.851562 7.49922V6.49922C0.851562 6.08359 1.18594 5.74922 1.60156 5.74922H10.5828L6.81719 2.16172C6.51094 1.87109 6.50469 1.38672 6.80469 1.08984Z" fill="#0088FF"/>
</svg>
