<svg width="17" height="12" viewBox="0 0 17 12" fill="none" xmlns="http://www.w3.org/2000/svg">
<path d="M11.5234 0.546875C11.4089 0.432292 11.2734 0.375 11.1172 0.375C10.9609 0.375 10.8255 0.432292 10.7109 0.546875C10.5964 0.651042 10.5391 0.78125 10.5391 0.9375C10.5391 1.09375 10.5964 1.22917 10.7109 1.34375L14.8047 5.4375H1.30469C1.14844 5.4375 1.01562 5.49219 0.90625 5.60156C0.796875 5.71094 0.742188 5.84375 0.742188 6C0.742188 6.15625 0.796875 6.28906 0.90625 6.39844C1.01562 6.50781 1.14844 6.5625 1.30469 6.5625H14.8047L10.7109 10.6562C10.5964 10.7604 10.5391 10.8932 10.5391 11.0547C10.5391 11.2161 10.5964 11.349 10.7109 11.4531C10.8255 11.5677 10.9609 11.625 11.1172 11.625C11.2734 11.625 11.4089 11.5677 11.5234 11.4531L16.5703 6.40625C16.6849 6.29167 16.7422 6.15625 16.7422 6C16.7422 5.84375 16.6849 5.70833 16.5703 5.59375L11.5234 0.546875Z" fill="#EAE7F3"/>
</svg>
