<svg width="10" height="19" viewBox="0 0 10 19" fill="none" xmlns="http://www.w3.org/2000/svg">
<path d="M9.50195 0.921875H7.16406C6.50781 0.921875 5.91602 1.02734 5.38867 1.23828C4.84961 1.4375 4.39258 1.73047 4.01758 2.11719C3.64258 2.50391 3.35547 2.97266 3.15625 3.52344C2.95703 4.0625 2.85742 4.67188 2.85742 5.35156V7.39062H0.501953C0.396484 7.39062 0.308594 7.42578 0.238281 7.49609C0.167969 7.56641 0.132812 7.6543 0.132812 7.75977V10.7129C0.132812 10.8184 0.167969 10.9062 0.238281 10.9766C0.308594 11.0469 0.396484 11.082 0.501953 11.082H2.85742V18.5527C2.85742 18.6582 2.89258 18.7461 2.96289 18.8164C3.0332 18.8867 3.11523 18.9219 3.20898 18.9219H6.28516C6.37891 18.9219 6.46387 18.8867 6.54004 18.8164C6.61621 18.7461 6.6543 18.6582 6.6543 18.5527V11.082H9.39648C9.49023 11.082 9.5752 11.0469 9.65137 10.9766C9.72754 10.9062 9.76562 10.8184 9.76562 10.7129V7.75977C9.76562 7.71289 9.75391 7.66602 9.73047 7.61914C9.70703 7.57227 9.67773 7.53125 9.64258 7.49609C9.61914 7.46094 9.58398 7.43457 9.53711 7.41699C9.49023 7.39941 9.44336 7.39062 9.39648 7.39062H6.6543V5.66797C6.6543 5.24609 6.73047 4.92969 6.88281 4.71875C7.03516 4.50781 7.38086 4.40234 7.91992 4.40234H9.50195C9.60742 4.40234 9.69531 4.36719 9.76562 4.29688C9.83594 4.22656 9.87109 4.13867 9.87109 4.0332V1.29102C9.87109 1.18555 9.83594 1.09766 9.76562 1.02734C9.69531 0.957031 9.60742 0.921875 9.50195 0.921875Z" fill="#D2D2D2"/>
</svg>
