<svg width="18" height="19" viewBox="0 0 18 19" fill="none" xmlns="http://www.w3.org/2000/svg">
<path d="M17.9785 5.98242C17.9551 5.50195 17.9082 5.08887 17.8379 4.74316C17.7676 4.39746 17.6738 4.08398 17.5566 3.80273C17.4395 3.49805 17.2959 3.21094 17.126 2.94141C16.9561 2.67188 16.7539 2.42578 16.5195 2.20312C16.2969 1.98047 16.0508 1.78125 15.7812 1.60547C15.5117 1.42969 15.2246 1.2832 14.9199 1.16602C14.6387 1.06055 14.3252 0.969727 13.9795 0.893555C13.6338 0.817383 13.2207 0.767578 12.7402 0.744141C12.2598 0.720703 11.8262 0.706055 11.4395 0.700195C11.0527 0.694336 10.25 0.691406 9.03125 0.691406C7.8125 0.691406 7.00977 0.694336 6.62305 0.700195C6.23633 0.706055 5.80273 0.720703 5.32227 0.744141C4.8418 0.767578 4.42871 0.814453 4.08301 0.884766C3.7373 0.955078 3.42383 1.04883 3.14258 1.16602C2.83789 1.2832 2.55078 1.42676 2.28125 1.59668C2.01172 1.7666 1.76562 1.96875 1.54297 2.20312C1.30859 2.42578 1.10352 2.67188 0.927734 2.94141C0.751953 3.21094 0.611328 3.49805 0.505859 3.80273C0.388672 4.08398 0.294922 4.39746 0.224609 4.74316C0.154297 5.08887 0.107422 5.50195 0.0839844 5.98242C0.0605469 6.46289 0.0458984 6.89648 0.0400391 7.2832C0.0341797 7.66992 0.03125 8.47266 0.03125 9.69141C0.03125 10.9102 0.0341797 11.7129 0.0400391 12.0996C0.0458984 12.4863 0.0605469 12.9199 0.0839844 13.4004C0.107422 13.8809 0.154297 14.2939 0.224609 14.6396C0.294922 14.9854 0.388672 15.2988 0.505859 15.5801C0.611328 15.8848 0.751953 16.1719 0.927734 16.4414C1.10352 16.7109 1.30859 16.957 1.54297 17.1797C1.76562 17.4141 2.01172 17.6191 2.28125 17.7949C2.55078 17.9707 2.83203 18.1113 3.125 18.2168C3.41797 18.334 3.7373 18.4277 4.08301 18.498C4.42871 18.5684 4.8418 18.6152 5.32227 18.6387C5.80273 18.6621 6.2334 18.6768 6.61426 18.6826C6.99512 18.6885 7.80078 18.6914 9.03125 18.6914C10.25 18.6914 11.0527 18.6885 11.4395 18.6826C11.8262 18.6768 12.2598 18.6621 12.7402 18.6387C13.2207 18.6152 13.6338 18.5684 13.9795 18.498C14.3252 18.4277 14.6387 18.334 14.9199 18.2168C15.5293 17.9824 16.0625 17.6367 16.5195 17.1797C16.9766 16.7227 17.3223 16.1895 17.5566 15.5801C17.6621 15.2988 17.7529 14.9854 17.8291 14.6396C17.9053 14.2939 17.9551 13.8809 17.9785 13.4004C17.9902 12.9199 18.002 12.4863 18.0137 12.0996C18.0254 11.7129 18.0312 10.9102 18.0312 9.69141C18.0312 8.47266 18.0283 7.66992 18.0225 7.2832C18.0166 6.89648 18.002 6.46289 17.9785 5.98242ZM16.3613 13.3301C16.3379 13.7754 16.2939 14.127 16.2295 14.3848C16.165 14.6426 16.1035 14.8477 16.0449 15C15.8926 15.3984 15.667 15.7441 15.3682 16.0371C15.0693 16.3301 14.7266 16.5527 14.3398 16.7051C14.1758 16.7754 13.9648 16.8398 13.707 16.8984C13.4492 16.957 13.1035 16.998 12.6699 17.0215C12.1895 17.0449 11.7646 17.0596 11.3955 17.0654C11.0264 17.0713 10.2383 17.0742 9.03125 17.0742C7.83594 17.0742 7.05078 17.0713 6.67578 17.0654C6.30078 17.0596 5.87305 17.0449 5.39258 17.0215C4.95898 16.998 4.61328 16.957 4.35547 16.8984C4.09766 16.8398 3.88672 16.7754 3.72266 16.7051C3.53516 16.6348 3.35352 16.5439 3.17773 16.4326C3.00195 16.3213 2.83789 16.1895 2.68555 16.0371C2.54492 15.8965 2.41602 15.7383 2.29883 15.5625C2.18164 15.3867 2.08789 15.1992 2.01758 15C1.95898 14.8477 1.89746 14.6426 1.83301 14.3848C1.76855 14.127 1.73047 13.7754 1.71875 13.3301C1.69531 12.8613 1.68066 12.4395 1.6748 12.0645C1.66895 11.6895 1.66602 10.8984 1.66602 9.69141C1.66602 8.49609 1.66895 7.71094 1.6748 7.33594C1.68066 6.96094 1.69531 6.53906 1.71875 6.07031C1.73047 5.625 1.76855 5.27344 1.83301 5.01562C1.89746 4.75781 1.95898 4.55273 2.01758 4.40039C2.08789 4.20117 2.18164 4.01367 2.29883 3.83789C2.41602 3.66211 2.55078 3.50391 2.70312 3.36328C2.84375 3.21094 3.00195 3.0791 3.17773 2.96777C3.35352 2.85645 3.53516 2.76562 3.72266 2.69531C3.88672 2.625 4.09766 2.56055 4.35547 2.50195C4.61328 2.44336 4.95898 2.40234 5.39258 2.37891C5.87305 2.35547 6.30078 2.34082 6.67578 2.33496C7.05078 2.3291 7.83594 2.32617 9.03125 2.32617C10.2383 2.32617 11.0293 2.3291 11.4043 2.33496C11.7793 2.34082 12.2012 2.35547 12.6699 2.37891C13.1152 2.40234 13.4668 2.44336 13.7246 2.50195C13.9824 2.56055 14.1875 2.625 14.3398 2.69531C14.5391 2.76562 14.7266 2.85645 14.9023 2.96777C15.0781 3.0791 15.2363 3.21094 15.377 3.36328C15.5293 3.50391 15.6611 3.66211 15.7725 3.83789C15.8838 4.01367 15.9746 4.20117 16.0449 4.40039C16.1035 4.55273 16.165 4.75781 16.2295 5.01562C16.2939 5.27344 16.3379 5.625 16.3613 6.07031C16.3848 6.53906 16.3994 6.96094 16.4053 7.33594C16.4111 7.71094 16.4141 8.49609 16.4141 9.69141C16.4141 10.8984 16.4111 11.6895 16.4053 12.0645C16.3994 12.4395 16.3848 12.8613 16.3613 13.3301ZM9.03125 5.06836C8.38672 5.06836 7.78906 5.19141 7.23828 5.4375C6.67578 5.67188 6.18359 6 5.76172 6.42188C5.33984 6.84375 5.01172 7.33594 4.77734 7.89844C4.53125 8.46094 4.4082 9.05859 4.4082 9.69141C4.4082 10.3359 4.53125 10.9336 4.77734 11.4844C5.01172 12.0469 5.33984 12.5391 5.76172 12.9609C6.18359 13.3828 6.67578 13.7109 7.23828 13.9453C7.78906 14.1914 8.38672 14.3145 9.03125 14.3145C9.66406 14.3145 10.2617 14.1914 10.8242 13.9453C11.3867 13.7109 11.8789 13.3828 12.3008 12.9609C12.7227 12.5391 13.0508 12.0469 13.2852 11.4844C13.5312 10.9336 13.6543 10.3359 13.6543 9.69141C13.6543 9.05859 13.5312 8.46094 13.2852 7.89844C13.0508 7.33594 12.7227 6.84375 12.3008 6.42188C11.8789 6 11.3867 5.67188 10.8242 5.4375C10.2617 5.19141 9.66406 5.06836 9.03125 5.06836ZM9.03125 12.6973C8.19922 12.6973 7.49023 12.4043 6.9043 11.8184C6.31836 11.2324 6.02539 10.5234 6.02539 9.69141C6.02539 8.85938 6.31836 8.15039 6.9043 7.56445C7.49023 6.97852 8.19922 6.68555 9.03125 6.68555C9.86328 6.68555 10.5723 6.97852 11.1582 7.56445C11.7441 8.15039 12.0371 8.85938 12.0371 9.69141C12.0371 10.5234 11.7441 11.2324 11.1582 11.8184C10.5723 12.4043 9.86328 12.6973 9.03125 12.6973ZM14.9199 4.89258C14.9199 5.18555 14.8145 5.4375 14.6035 5.64844C14.3926 5.85938 14.1348 5.96484 13.8301 5.96484C13.5371 5.96484 13.2852 5.85938 13.0742 5.64844C12.8633 5.4375 12.7578 5.18555 12.7578 4.89258C12.7578 4.58789 12.8633 4.33008 13.0742 4.11914C13.2852 3.9082 13.5371 3.80273 13.8301 3.80273C14.1348 3.80273 14.3926 3.9082 14.6035 4.11914C14.8145 4.33008 14.9199 4.58789 14.9199 4.89258Z" fill="#D2D2D2"/>
</svg>
