<svg width="14" height="18" viewBox="0 0 14 18" fill="none" xmlns="http://www.w3.org/2000/svg">
<path d="M7.6 0.1875C10.9047 0.1875 13.9281 2.47266 13.9281 5.95312C13.9281 9.22266 12.2406 12.8789 8.51406 12.8789C7.6 12.8789 6.51016 12.4219 6.05312 11.6133C5.27969 14.7773 5.31484 15.2695 3.55703 17.6953C3.38125 17.7656 3.41641 17.7656 3.31094 17.625C3.24062 16.957 3.17031 16.3242 3.17031 15.6562C3.17031 13.5117 4.15469 10.3828 4.64687 8.30859C4.36562 7.74609 4.29531 7.11328 4.29531 6.51562C4.29531 3.70312 7.6 3.28125 7.6 5.60156C7.6 6.97266 6.65078 8.27344 6.65078 9.60938C6.65078 10.4883 7.42422 11.1211 8.30312 11.1211C10.7289 11.1211 11.4672 7.64062 11.4672 5.77734C11.4672 3.28125 9.70937 1.91016 7.28359 1.91016C4.50625 1.91016 2.36172 3.91406 2.36172 6.72656C2.36172 8.09766 3.20547 8.80078 3.20547 9.11719C3.20547 9.39844 2.99453 10.3477 2.64297 10.3477C1.79922 10.3477 0.428125 8.94141 0.428125 6.48047C0.428125 2.57812 3.97891 0.1875 7.6 0.1875Z" fill="#D2D2D2"/>
</svg>
